<svg width="35" height="28" viewBox="0 0 35 28" fill="none" xmlns="http://www.w3.org/2000/svg">
<path d="M26.6 17.47H25.4L24.97 17.06C26.5116 15.2803 27.3601 13.0045 27.36 10.65C27.36 8.03404 26.3215 5.52507 24.4727 3.67438C22.6239 1.82368 20.116 0.782649 17.5 0.779999C14.8823 0.779999 12.3719 1.81985 10.5209 3.67084C8.66989 5.52182 7.63 8.03231 7.63 10.65C7.63266 13.2659 8.67369 15.7739 10.5244 17.6227C12.3751 19.4715 14.884 20.51 17.5 20.51C19.8525 20.5084 22.1265 19.6641 23.91 18.13L24.32 18.55V19.75L31.9 27.37L34.16 25.11L26.6 17.47ZM17.5 17.47C16.6035 17.4713 15.7156 17.2959 14.887 16.9537C14.0584 16.6116 13.3054 16.1094 12.6711 15.476C12.0367 14.8426 11.5335 14.0903 11.1901 13.2622C10.8467 12.4341 10.67 11.5465 10.67 10.65C10.6687 9.7527 10.8445 8.86395 11.1872 8.0347C11.53 7.20545 12.0331 6.45199 12.6675 5.8175C13.302 5.18302 14.0555 4.67999 14.8847 4.33722C15.714 3.99445 16.6027 3.81869 17.5 3.82001C18.3965 3.82001 19.2841 3.99673 20.1122 4.34009C20.9403 4.68345 21.6926 5.18672 22.326 5.82108C22.9594 6.45543 23.4616 7.20842 23.8037 8.03702C24.1459 8.86561 24.3213 9.75354 24.32 10.65C24.32 11.5465 24.1433 12.4341 23.7999 13.2622C23.4565 14.0903 22.9533 14.8426 22.3189 15.476C21.6846 16.1094 20.9316 16.6116 20.103 16.9537C19.2744 17.2959 18.3865 17.4713 17.49 17.47H17.5Z" fill="#39C5F3"/>
<path d="M1.47 16.47V16.53L1.63 16.76L7.57001 25.29C7.71116 25.4908 7.92598 25.6277 8.16763 25.6708C8.40928 25.7139 8.65816 25.6596 8.86002 25.52C8.95094 25.459 9.02905 25.3809 9.09 25.29L15.01 16.76C15.07 16.68 15.13 16.61 15.18 16.53V16.48C16.3613 14.6512 16.7678 12.4282 16.3103 10.2997C15.8527 8.17128 14.5685 6.31172 12.74 5.13001C10.9113 3.94873 8.68821 3.54215 6.55975 3.99973C4.43129 4.4573 2.57173 5.74155 1.39001 7.57001C0.533574 8.89803 0.078064 10.4448 0.078064 12.025C0.078064 13.6052 0.533574 15.152 1.39001 16.48L1.47 16.47ZM8.37 8.60999C9.27704 8.60999 10.1469 8.97032 10.7883 9.61169C11.4297 10.2531 11.79 11.123 11.79 12.03C11.79 12.937 11.4297 13.8069 10.7883 14.4483C10.1469 15.0897 9.27704 15.45 8.37 15.45C7.46295 15.45 6.59307 15.0897 5.95169 14.4483C5.31032 13.8069 4.95001 12.937 4.95001 12.03C4.95345 11.1235 5.31253 10.2545 5.95001 9.60999C6.26793 9.29251 6.64528 9.04082 7.06052 8.86923C7.47575 8.69765 7.92071 8.60954 8.37 8.60999Z" fill="#0B4B7D"/>
</svg>
