<svg width="33" height="28" viewBox="0 0 33 28" fill="none" xmlns="http://www.w3.org/2000/svg">
<path d="M31.2 12.01H21.06V1.85001C21.06 1.52286 20.9308 1.20897 20.7004 0.976715C20.47 0.744455 20.1571 0.612654 19.83 0.610016H18.56C18.3976 0.610011 18.2369 0.642152 18.087 0.70459C17.9371 0.767028 17.8011 0.858508 17.6867 0.973785C17.5724 1.08906 17.4819 1.22586 17.4207 1.37625C17.3595 1.52664 17.3287 1.68764 17.33 1.85001V12.01H7.13C6.80194 12.0126 6.48808 12.1441 6.2561 12.3761C6.02412 12.6081 5.89263 12.9219 5.89001 13.25V14.51C5.89265 14.8371 6.02445 15.15 6.25671 15.3804C6.48897 15.6108 6.80286 15.74 7.13 15.74H17.29V25.91C17.2926 26.2371 17.4244 26.55 17.6567 26.7804C17.8889 27.0108 18.2028 27.14 18.53 27.14H19.79C20.1171 27.14 20.431 27.0108 20.6633 26.7804C20.8955 26.55 21.0273 26.2371 21.03 25.91V15.75H31.19C31.5171 15.75 31.831 15.6208 32.0633 15.3904C32.2956 15.16 32.4274 14.8472 32.43 14.52V13.25C32.4274 12.9229 32.2956 12.6101 32.0633 12.3797C31.831 12.1493 31.5171 12.02 31.19 12.02" fill="#FFD600"/>
<path d="M1.63 16.51V16.56L1.77997 16.78L7.45001 24.92C7.51602 25.0156 7.60031 25.0971 7.698 25.16C7.79569 25.2228 7.90482 25.2657 8.01917 25.2862C8.13351 25.3066 8.25078 25.3043 8.3642 25.2792C8.47762 25.2541 8.58494 25.2068 8.67999 25.14C8.76295 25.077 8.837 25.003 8.90002 24.92L14.55 16.79L14.71 16.57V16.52C15.8354 14.7744 16.2221 12.6535 15.7852 10.623C15.3484 8.59256 14.1237 6.81838 12.38 5.69C10.6359 4.56514 8.51664 4.17873 6.48779 4.61562C4.45894 5.05252 2.68651 6.277 1.56 8.02001C0.742758 9.28685 0.308105 10.7624 0.308105 12.27C0.308105 13.7776 0.742758 15.2532 1.56 16.52L1.63 16.51ZM8.21002 9.01C9.07463 9.01 9.90377 9.35347 10.5151 9.96484C11.1265 10.5762 11.47 11.4054 11.47 12.27C11.47 13.1346 11.1265 13.9638 10.5151 14.5752C9.90377 15.1866 9.07463 15.53 8.21002 15.53C7.34542 15.53 6.51621 15.1866 5.90485 14.5752C5.29348 13.9638 4.95001 13.1346 4.95001 12.27C4.95437 11.8392 5.04509 11.4137 5.21686 11.0186C5.38863 10.6236 5.63795 10.267 5.95001 9.97C6.247 9.65793 6.60359 9.40864 6.99866 9.23687C7.39373 9.0651 7.81923 8.97435 8.25 8.97" fill="#28B5EB"/>
</svg>
