<svg width="27" height="26" viewBox="0 0 27 26" fill="none" xmlns="http://www.w3.org/2000/svg">
<path d="M4.71707 18.7698C5.72714 18.7698 6.54596 17.951 6.54596 16.9409C6.54596 15.9309 5.72714 15.1121 4.71707 15.1121C3.707 15.1121 2.88818 15.9309 2.88818 16.9409C2.88818 17.951 3.707 18.7698 4.71707 18.7698Z" fill="#F7931E"/>
<path d="M4.4114 23.78C4.45091 23.8213 4.49836 23.8541 4.55089 23.8765C4.60343 23.899 4.65996 23.9105 4.71708 23.9105C4.77421 23.9105 4.83074 23.899 4.88327 23.8765C4.93581 23.8541 4.98326 23.8213 5.02276 23.78L8.06447 20.6032C9.8905 18.7034 9.89119 15.5978 8.0659 13.6804C7.63653 13.2229 7.11796 12.8582 6.5422 12.6089C5.96644 12.3596 5.3457 12.2309 4.71828 12.2307C4.09085 12.2306 3.47005 12.359 2.89418 12.6081C2.31831 12.8571 1.79959 13.2216 1.37001 13.6789C-0.45623 15.5789 -0.456865 18.6843 1.36927 20.6026L4.4114 23.78ZM4.71706 14.2657C5.24618 14.2657 5.76342 14.4226 6.20337 14.7166C6.64333 15.0105 6.98623 15.4284 7.18873 15.9172C7.39122 16.406 7.44421 16.9439 7.34099 17.4629C7.23777 17.9819 6.98298 18.4586 6.60883 18.8327C6.23469 19.2069 5.758 19.4617 5.23905 19.5649C4.72009 19.6681 4.18218 19.6151 3.69334 19.4127C3.20449 19.2102 2.78667 18.8673 2.4927 18.4273C2.19874 17.9874 2.04183 17.4701 2.04183 16.941C2.04263 16.2317 2.32474 15.5517 2.82627 15.0502C3.32779 14.5487 4.00778 14.2666 4.71706 14.2657Z" fill="#F7931E"/>
<path d="M21.303 6.53918C22.3131 6.53918 23.1319 5.72036 23.1319 4.7103C23.1319 3.70023 22.3131 2.88141 21.303 2.88141C20.2929 2.88141 19.4741 3.70023 19.4741 4.7103C19.4741 5.72036 20.2929 6.53918 21.303 6.53918Z" fill="#F7931E"/>
<path d="M21.3031 4.52813e-07C20.6758 -0.00027824 20.0551 0.128091 19.4793 0.377176C18.9036 0.62626 18.3851 0.990768 17.9558 1.44817C16.1297 3.34805 16.1291 6.45361 17.9552 8.37195L20.9974 11.5493C21.0369 11.5906 21.0843 11.6234 21.1368 11.6458C21.1894 11.6683 21.2459 11.6798 21.303 11.6798C21.3602 11.6798 21.4167 11.6683 21.4692 11.6458C21.5218 11.6234 21.5692 11.5906 21.6087 11.5493L24.6504 8.37253C26.4765 6.4727 26.4771 3.36715 24.6519 1.44971C24.2225 0.991882 23.7038 0.627012 23.1278 0.377658C22.5518 0.128304 21.9307 -0.000231798 21.3031 4.52813e-07ZM21.3031 7.38559C20.7739 7.3856 20.2567 7.2287 19.8167 6.93475C19.3768 6.64079 19.0339 6.22297 18.8314 5.73413C18.6289 5.24529 18.5759 4.70738 18.6791 4.18842C18.7824 3.66947 19.0371 3.19277 19.4113 2.81862C19.7854 2.44448 20.2621 2.18967 20.7811 2.08644C21.3 1.98321 21.8379 2.03619 22.3268 2.23867C22.8156 2.44116 23.2335 2.78405 23.5274 3.224C23.8214 3.66395 23.9783 4.18119 23.9783 4.71031C23.9775 5.41958 23.6954 6.09958 23.1939 6.60112C22.6923 7.10265 22.0123 7.38478 21.3031 7.38559Z" fill="#F7931E"/>
<path d="M4.65186 25.0478C4.65215 25.3002 4.75256 25.5423 4.93107 25.7208C5.10958 25.8993 5.3516 25.9997 5.60404 26H9.62439C12.483 26 14.8085 23.648 14.8085 20.7894V16.9278C14.8085 15.1193 16.2798 13.6745 18.0883 13.6745H20.2571C20.5097 13.6745 20.7519 13.5741 20.9304 13.3956C21.109 13.217 21.2093 12.9748 21.2093 12.7223C21.2093 12.4697 21.109 12.2275 20.9304 12.049C20.7519 11.8704 20.5097 11.7701 20.2571 11.7701H18.0883C15.2297 11.7701 12.9041 14.0692 12.9041 16.9278V20.7894C12.9041 22.5979 11.4329 24.0956 9.62439 24.0956H5.60404C5.3516 24.0959 5.10958 24.1963 4.93107 24.3748C4.75256 24.5533 4.65215 24.7954 4.65186 25.0478Z" fill="#F7931E"/>
</svg>
