<svg width="24" height="28" viewBox="0 0 24 28" fill="none" xmlns="http://www.w3.org/2000/svg">
<path d="M22.1688 8.10054C22.4273 8.35907 22.8294 8.35907 23.088 8.10054L23.8061 7.38241C24.0646 7.12388 24.0646 6.72172 23.8061 6.4632L21.4219 4.07899C21.1634 3.82047 20.7612 3.82047 20.5027 4.07899L19.7846 4.79713C19.526 5.05566 19.526 5.45781 19.7846 5.71634L20.2442 6.17594L19.2962 7.12388C17.7451 5.83124 15.8205 4.94075 13.7522 4.62478V3.27469H14.6715C15.0162 3.27469 15.3034 2.98743 15.3034 2.64273V0.631957C15.3034 0.287253 15.0162 0 14.6715 0H9.29982C8.95512 0 8.66786 0.287253 8.66786 0.631957V2.64273C8.66786 2.98743 8.95512 3.27469 9.29982 3.27469H10.219V4.59605C8.15081 4.91203 6.25494 5.80251 4.70377 7.06643L3.75584 6.11849L4.21544 5.65889C4.47397 5.40036 4.47397 4.99821 4.21544 4.73968L3.49731 4.02154C3.23878 3.76302 2.83663 3.76302 2.5781 4.02154L0.193896 6.43447C-0.064632 6.693 -0.064632 7.09515 0.193896 7.35368L0.912029 8.07181C1.17056 8.33034 1.57271 8.33034 1.83124 8.07181L2.29084 7.61221L3.23878 8.56014C1.57271 10.5422 0.596051 13.0987 0.596051 15.8564C0.596051 22.1472 5.70916 27.2603 12 27.2603C18.2908 27.2603 23.404 22.1472 23.404 15.8564C23.404 13.0987 22.4273 10.5709 20.7899 8.58887L21.7379 7.64093L22.1688 8.10054ZM12 24.8474C7.05925 24.8474 3.00898 20.8259 3.00898 15.8564C3.00898 10.8869 7.03052 6.86535 12 6.86535C16.9408 6.86535 20.991 10.8869 20.991 15.8564C20.991 20.8259 16.9408 24.8474 12 24.8474Z" fill="#F7931E"/>
<path d="M15.9927 14.65H13.2064V10.1688C13.2064 9.50812 12.6606 8.96234 11.9999 8.96234C11.3392 8.96234 10.7935 9.50812 10.7935 10.1688V15.8564C10.7935 16.5171 11.3392 17.0629 11.9999 17.0629H16.0215C16.6821 17.0629 17.2279 16.5171 17.2279 15.8564C17.1992 15.1957 16.6821 14.65 15.9927 14.65Z" fill="#F7931E"/>
</svg>
